# xmcd
#
# Track frame offsets: 
#        150
#        11664
#        22655
#        34001
#        43071
#        55780
#        68672
#        82322
#        93762
#        106388
#        118254
#        128752
#        138066
#        147505
#        159364
#        168368
#        178935
#        189298
#        200837
#        212543
#        229651
#        240692
#        253864
#        271868
#        284132
#
# Disc length: 4040 seconds
#
# Revision: 0
# Processed by: cddbd v1.5.2PL0 Copyright (c) Steve Scherf et al.
# Submitted via: ExactAudioCopyFreeDBPlugin 1.0
#
DISCID=650fc619
DTITLE=Various Artist - The Northern Soul Years..You're Never Too Young
DYEAR=1900
DGENRE=Soul
TTITLE0=The Showmen - Our Love Will Grow
TTITLE1=Sheila Ferguson - Heartbroken Memories
TTITLE2=Ronnie and Robyn - As Long As You Love Me
TTITLE3=The Capreez - How To Make A Sad Man Glad
TTITLE4=Timmy Willis - Mr Soul Satisfaction
TTITLE5=Richie Barrett - I Will Love You
TTITLE6=Eddie Calton - Misery
TTITLE7=Guys From Uncle - The Spy
TTITLE8=Embraceables - Let My Baby Go
TTITLE9=The Precisions - Sugar Ain't Sweet
TTITLE10=The Modern Red Caps - Never Too Young
TTITLE11=John Leach - Put That Woman Down
TTITLE12=The Jay Walkers - Can't Live Without You
TTITLE13=Sammy Sevens - Everybody Crossfire
TTITLE14=The Persianettes - Run Run
TTITLE15=The Falcons -  I'm A Fool I Must Love You
TTITLE16=Barbara Mercer - Call On Me
TTITLE17=Sheila Ferguson - And In Return
TTITLE18=The Falcons - You Got The Power
TTITLE19=Innervision - Gotta Find My Way Back Home
TTITLE20=Chapter 3 - Under Your Spell
TTITLE21=A.K.A - I'm A Winner
TTITLE22=Carmen - Show Me The Way
TTITLE23=A.K.A. - I'm So Glad You're Here
TTITLE24=Innervision - I Just Want To Say I Love You
EXTD=ID3G: 42
EXTT0=
EXTT1=
EXTT2=
EXTT3=
EXTT4=
EXTT5=
EXTT6=
EXTT7=
EXTT8=
EXTT9=
EXTT10=
EXTT11=
EXTT12=
EXTT13=
EXTT14=
EXTT15=
EXTT16=
EXTT17=
EXTT18=
EXTT19=
EXTT20=
EXTT21=
EXTT22=
EXTT23=
EXTT24=
PLAYORDER=
